<svg xmlns="http://www.w3.org/2000/svg" width="28.85" height="19.323" viewBox="0 0 28.85 19.323">
  <path id="Icon_awesome-credit-card" data-name="Icon awesome-credit-card" d="M0,19.5a2.257,2.257,0,0,0,2.4,2.07H26.446a2.257,2.257,0,0,0,2.4-2.07V11.912H0ZM9.617,16.57a.566.566,0,0,1,.6-.518H17.03a.566.566,0,0,1,.6.518V18.3a.566.566,0,0,1-.6.518H10.218a.566.566,0,0,1-.6-.518Zm-6.411,0a.566.566,0,0,1,.6-.518H7.413a.566.566,0,0,1,.6.518V18.3a.566.566,0,0,1-.6.518H3.807a.566.566,0,0,1-.6-.518ZM28.85,4.32v2.07H0V4.32A2.257,2.257,0,0,1,2.4,2.25H26.446A2.257,2.257,0,0,1,28.85,4.32Z" transform="translate(0 -2.25)" fill="#35c7c7"/>
</svg>
