<svg xmlns="http://www.w3.org/2000/svg" width="17.25" height="15.333" viewBox="0 0 17.25 15.333">
  <path id="Icon_material-drive-eta" data-name="Icon material-drive-eta" d="M19.757,6.968A1.432,1.432,0,0,0,18.4,6H7.854a1.441,1.441,0,0,0-1.361.968L4.5,12.708v7.667a.961.961,0,0,0,.958.958h.958a.961.961,0,0,0,.958-.958v-.958h11.5v.958a.961.961,0,0,0,.958.958h.958a.961.961,0,0,0,.958-.958V12.708l-1.993-5.74Zm-11.9,9.574A1.437,1.437,0,1,1,9.292,15.1,1.436,1.436,0,0,1,7.854,16.542Zm10.542,0A1.437,1.437,0,1,1,19.833,15.1,1.436,1.436,0,0,1,18.4,16.542ZM6.417,11.75,7.854,7.438H18.4l1.438,4.313Z" transform="translate(-4.5 -6)" fill="#fff"/>
</svg>
