<svg xmlns="http://www.w3.org/2000/svg" width="19" height="17.666" viewBox="0 0 19 17.666">
  <path id="Icon_awesome-exclamation-circle" data-name="Icon awesome-exclamation-circle" d="M19.563,9.4c0,4.879-4.254,8.833-9.5,8.833S.563,14.275.563,9.4,4.816.563,10.063.563,19.563,4.519,19.563,9.4Zm-9.5,1.781A1.7,1.7,0,0,0,8.3,12.815a1.7,1.7,0,0,0,1.762,1.638,1.7,1.7,0,0,0,1.762-1.638A1.7,1.7,0,0,0,10.063,11.176ZM8.39,5.287l.284,4.844a.447.447,0,0,0,.459.4h1.86a.447.447,0,0,0,.459-.4l.284-4.844a.442.442,0,0,0-.459-.451H8.848A.442.442,0,0,0,8.39,5.287Z" transform="translate(-0.563 -0.563)" fill="#fb3636"/>
</svg>
