<svg xmlns="http://www.w3.org/2000/svg" width="19.448" height="15.123" viewBox="0 0 19.448 15.123">
  <path id="Icon_awesome-home" data-name="Icon awesome-home" d="M9.465,6.177,3.24,11.3v5.533a.54.54,0,0,0,.54.54l3.783-.01a.54.54,0,0,0,.537-.54V13.6a.54.54,0,0,1,.54-.54H10.8a.54.54,0,0,1,.54.54v3.229a.54.54,0,0,0,.54.542l3.782.01a.54.54,0,0,0,.54-.54V11.3L9.982,6.177A.412.412,0,0,0,9.465,6.177ZM19.3,9.661,16.475,7.335V2.659a.405.405,0,0,0-.405-.405H14.179a.405.405,0,0,0-.405.405V5.11L10.751,2.623a1.621,1.621,0,0,0-2.059,0L.146,9.661a.405.405,0,0,0-.054.571l.861,1.047a.405.405,0,0,0,.571.055L9.465,4.793a.412.412,0,0,1,.517,0l7.942,6.541a.405.405,0,0,0,.571-.054l.861-1.047a.405.405,0,0,0-.057-.572Z" transform="translate(0.001 -2.254)" fill="#fff"/>
</svg>
