<svg xmlns="http://www.w3.org/2000/svg" width="24.072" height="24.114" viewBox="0 0 24.072 24.114">
  <path id="Icon_feather-phone-call" data-name="Icon feather-phone-call" d="M16.773,5.706A5.258,5.258,0,0,1,20.927,9.86M16.773,1.5a9.464,9.464,0,0,1,8.36,8.35m-1.052,8.392V21.4a2.1,2.1,0,0,1-2.292,2.1,20.811,20.811,0,0,1-9.075-3.228A20.506,20.506,0,0,1,6.4,13.961,20.811,20.811,0,0,1,3.176,4.844,2.1,2.1,0,0,1,5.269,2.552H8.424a2.1,2.1,0,0,1,2.1,1.809,13.5,13.5,0,0,0,.736,2.955,2.1,2.1,0,0,1-.473,2.219L9.454,10.87a16.825,16.825,0,0,0,6.309,6.309L17.1,15.843a2.1,2.1,0,0,1,2.219-.473,13.5,13.5,0,0,0,2.955.736A2.1,2.1,0,0,1,24.082,18.241Z" transform="translate(-2.167 -0.396)" fill="none" stroke="#fff" stroke-linecap="round" stroke-linejoin="round" stroke-width="2"/>
</svg>
