<svg xmlns="http://www.w3.org/2000/svg" width="21.109" height="19.627" viewBox="0 0 21.109 19.627">
  <path id="Icon_awesome-exclamation-circle" data-name="Icon awesome-exclamation-circle" d="M21.672,10.376c0,5.421-4.726,9.814-10.555,9.814S.563,15.8.563,10.376,5.288.563,11.117.563,21.672,4.958,21.672,10.376ZM11.117,12.355a1.893,1.893,0,0,0-1.958,1.82A1.893,1.893,0,0,0,11.117,16a1.893,1.893,0,0,0,1.958-1.82A1.893,1.893,0,0,0,11.117,12.355ZM9.258,5.812l.316,5.382a.5.5,0,0,0,.51.449H12.15a.5.5,0,0,0,.51-.449l.316-5.382a.491.491,0,0,0-.51-.5h-2.7A.491.491,0,0,0,9.258,5.812Z" transform="translate(-0.563 -0.563)" fill="#fb3636"/>
</svg>
