<svg xmlns="http://www.w3.org/2000/svg" width="18.88" height="19" viewBox="0 0 18.88 19">
  <path id="Icon_awesome-save" data-name="Icon awesome-save" d="M18.288,6.4,14.753,2.846a2.016,2.016,0,0,0-1.43-.6H2.023A2.029,2.029,0,0,0,0,4.286V19.214A2.029,2.029,0,0,0,2.023,21.25H16.857a2.029,2.029,0,0,0,2.023-2.036V7.843A2.042,2.042,0,0,0,18.288,6.4ZM9.44,18.536a2.714,2.714,0,1,1,2.7-2.714A2.706,2.706,0,0,1,9.44,18.536ZM13.486,5.621V9.884a.507.507,0,0,1-.506.509H3.2A.507.507,0,0,1,2.7,9.884V5.473A.507.507,0,0,1,3.2,4.964h9.631a.5.5,0,0,1,.358.149l.147.148A.51.51,0,0,1,13.486,5.621Z" transform="translate(0 -2.25)" fill="#35c7c7"/>
</svg>
