<svg xmlns="http://www.w3.org/2000/svg" width="20" height="17.778" viewBox="0 0 20 17.778">
  <g id="Iconly_Bold_Filter" data-name="Iconly/Bold/Filter" transform="translate(-2 -3)">
    <g id="Filter" transform="translate(2 3)">
      <path id="Path_1" data-name="Path 1" d="M16.561,11.02a3.38,3.38,0,1,1-3.439,3.38A3.409,3.409,0,0,1,16.561,11.02ZM8.083,12.958a1.482,1.482,0,1,1,0,2.963H1.508a1.482,1.482,0,1,1,0-2.963H8.083ZM3.439,0A3.409,3.409,0,0,1,6.878,3.379a3.409,3.409,0,0,1-3.439,3.38A3.41,3.41,0,0,1,0,3.379,3.41,3.41,0,0,1,3.439,0ZM18.493,1.9a1.481,1.481,0,1,1,0,2.962H11.918a1.481,1.481,0,1,1,0-2.962h6.576Z" fill="#35c7c7"/>
    </g>
  </g>
</svg>
