<svg xmlns="http://www.w3.org/2000/svg" width="25.627" height="19.22" viewBox="0 0 25.627 19.22">
  <path id="Icon_awesome-plane-departure" data-name="Icon awesome-plane-departure" d="M24.986,18.907H.641A.64.64,0,0,0,0,19.548v1.281a.64.64,0,0,0,.641.641H24.986a.64.64,0,0,0,.641-.641V19.548A.64.64,0,0,0,24.986,18.907ZM3.225,14.633a1.321,1.321,0,0,0,.974.429l5.227-.007a2.627,2.627,0,0,0,1.187-.285l11.65-5.912a6.807,6.807,0,0,0,2.684-2.335c.733-1.14.813-1.966.523-2.549s-.991-1.012-2.332-1.1a6.726,6.726,0,0,0-3.455.78l-3.944,2L6.982,2.371a.713.713,0,0,0-.721-.044L3.628,3.663a.732.732,0,0,0-.207,1.142L9.677,8.733l-4.133,2.1-2.9-1.46a.713.713,0,0,0-.643,0L.4,10.187a.732.732,0,0,0-.223,1.124Z" transform="translate(0 -2.25)" fill="#35c7c7"/>
</svg>
