<svg xmlns="http://www.w3.org/2000/svg" width="31.656" height="31.656" viewBox="0 0 31.656 31.656">
  <path id="Icon_awesome-arrow-alt-circle-down" data-name="Icon awesome-arrow-alt-circle-down" d="M32.219,16.391A15.828,15.828,0,1,1,16.391.563,15.825,15.825,0,0,1,32.219,16.391Zm-18.636-7.4v7.4H9.057A.766.766,0,0,0,8.515,17.7l7.333,7.295a.759.759,0,0,0,1.079,0L24.26,17.7a.766.766,0,0,0-.542-1.308H19.2v-7.4a.768.768,0,0,0-.766-.766H14.348A.768.768,0,0,0,13.582,8.987Z" transform="translate(-0.563 -0.563)" fill="#35c7c7"/>
</svg>
