<svg xmlns="http://www.w3.org/2000/svg" width="13.354" height="22.085" viewBox="0 0 13.354 22.085">
  <path id="Icon_material-directions-walk" data-name="Icon material-directions-walk" d="M16.7,6.359A2.054,2.054,0,1,0,14.65,4.3,2.06,2.06,0,0,0,16.7,6.359ZM12.9,9.851,10.027,24.335h2.157l1.849-8.218,2.157,2.054v6.163h2.054v-7.7l-2.157-2.054.616-3.082a7.522,7.522,0,0,0,5.65,2.568V12.008a5.053,5.053,0,0,1-4.417-2.465L16.909,7.9a2.119,2.119,0,0,0-1.746-1.027c-.308,0-.514.1-.822.1L9,9.235v4.828h2.054V10.57L12.9,9.851" transform="translate(-9 -2.25)" fill="#fff"/>
</svg>
